# xmcd CD database file
#
# Track frame offsets:
#	150
#	21068
#	31250
#	44324
#	59607
#	73200
#	91659
#	107917
#	120739
#	134533
#	153522
#	169759
#	184032
#	197906
#	218664
#	230222
#	259697
#	278409
#	294580
#
# Disc length: 4128 seconds
#
# Revision: 0
# Processed by: cddbd v1.4PL0 Copyright (c) Steve Scherf et al.
# Submitted via: CDex 1.40Beta8
#
DISCID=19101e13
DTITLE=Various Artist - Travelin' Texas Vol. 2
DYEAR=2001
DGENRE=Country
TTITLE0=Ray Wylie Hubbard - Ballad of the Crimson Kings
TTITLE1=Billy Joe Shaver - Love is so Sweet
TTITLE2=Eliza Gilkyson - Beautiful Dreamer
TTITLE3=Delbert McClinton - Desperation
TTITLE4=The Ace in the Hole Band feat. George Strait - Lonesome Rodeo Cowboy
TTITLE5=Bianca - Si Me Recuerdas
TTITLE6=Ponty Bone - Clifton's Boogie
TTITLE7=Clay Blaker - It's not too Late
TTITLE8=Denise Dunn - You are the Man
TTITLE9=Robert Earl Keen - Paint the Town Beige
TTITLE10=Tom Russell - When Sinatra Played Juarez
TTITLE11=Caroline Herring - Wise Woman
TTITLE12=Los Jet Set - Step it Up
TTITLE13=Adam Carroll - Errol's Song
TTITLE14=Shelley King - Pack it Up
TTITLE15=Adam Kay - Mud
TTITLE16=Sara Hickman - Hey! Where you Goin'?
TTITLE17=Michael Jarrett - Suzanna's Silver Ribbon
TTITLE18=Chris Ryback - Red River Valley
EXTD=YEAR: 2001 ID3G: 2
EXTT0=
EXTT1=
EXTT2=
EXTT3=
EXTT4=
EXTT5=
EXTT6=
EXTT7=
EXTT8=
EXTT9=
EXTT10=
EXTT11=
EXTT12=
EXTT13=
EXTT14=
EXTT15=
EXTT16=
EXTT17=
EXTT18=
PLAYORDER=
